<svg width="16" height="19" viewBox="0 0 16 19" fill="none" xmlns="http://www.w3.org/2000/svg">
<path d="M13.1136 4.75H2.88636C2.25877 4.75 1.75 5.25877 1.75 5.88637V16.1137C1.75 16.7413 2.25877 17.2501 2.88636 17.2501H13.1136C13.7412 17.2501 14.25 16.7413 14.25 16.1137V5.88637C14.25 5.25877 13.7412 4.75 13.1136 4.75Z" stroke="#100072" stroke-width="0.937503" stroke-miterlimit="10" stroke-linecap="square"/>
<path d="M13.625 2.875H2.375C1.125 2.875 1.125 2.875 1.125 3.1875V4.57956C1.125 4.75001 1.125 4.75001 2.375 4.75001H13.625C14.875 4.75001 14.875 4.75001 14.875 4.57956V3.04546C14.875 2.875 14.875 2.875 13.625 2.875Z" stroke="#100072" stroke-width="0.937503" stroke-miterlimit="10" stroke-linecap="square"/>
<path d="M4.875 7.875L4.875 14.125" stroke="#100072" stroke-width="0.937503" stroke-miterlimit="10" stroke-linecap="round"/>
<path d="M8 7.875L8 14.125" stroke="#100072" stroke-width="0.937503" stroke-miterlimit="10" stroke-linecap="round"/>
<path d="M11.125 7.875L11.125 14.125" stroke="#100072" stroke-width="0.937503" stroke-miterlimit="10" stroke-linecap="round"/>
<path d="M1.125 4.75L14.875 4.75" stroke="#100072" stroke-width="0.937503" stroke-miterlimit="10" stroke-linecap="round"/>
<path d="M10.0455 1H5.95455C5.70351 1 5.5 1.07632 5.5 1.17046V2.70456C5.5 2.7987 5.70351 2.87501 5.95455 2.87501H10.0455C10.2965 2.87501 10.5 2.7987 10.5 2.70456V1.17046C10.5 1.07632 10.2965 1 10.0455 1Z" stroke="#100072" stroke-width="0.937503" stroke-miterlimit="10" stroke-linecap="square"/>
</svg>
