<svg width="24" height="24" viewBox="0 0 24 24" fill="none" xmlns="http://www.w3.org/2000/svg">
	<g clip-path="url(#clip0_476_9255)">
		<path d="M22.9992 12.0002C22.7765 12.0002 22.5529 11.926 22.3674 11.7742L12.0002 3.29223L1.63299 11.7742C1.20526 12.1233 0.576351 12.0608 0.225761 11.6336C-0.123849 11.2058 -0.0603691 10.5759 0.367361 10.2263L11.3674 1.22632C11.7346 0.92456 12.2658 0.92456 12.633 1.22632L23.633 10.2263C24.0607 10.5759 24.1242 11.2058 23.7746 11.6336C23.5764 11.8752 23.2892 12.0002 22.9992 12.0002Z" fill="#FF0098"/>
		<path fill-rule="evenodd" clip-rule="evenodd" d="M20.6332 12.9394L12.6332 6.39401C12.2649 6.09262 11.7351 6.09262 11.3668 6.39401L3.36677 12.9394C3.13463 13.1293 3 13.4134 3 13.7133V22.9999C3 23.5522 3.44771 23.9999 4 23.9999L10 24V18H14V24H20C20.5523 24 21 23.5522 21 23V13.7133C21 13.4134 20.8654 13.1293 20.6332 12.9394Z" fill="#100072"/>
	</g>
	<defs>
		<clipPath id="clip0_476_9255">
			<rect width="24" height="24" fill="white"/>
		</clipPath>
	</defs>
</svg>
