<svg width="24" height="24" viewBox="0 0 24 24" fill="none" xmlns="http://www.w3.org/2000/svg">
	<path d="M12 23C18.0751 23 23 18.0751 23 12C23 5.92487 18.0751 1 12 1C5.92487 1 1 5.92487 1 12C1 18.0751 5.92487 23 12 23Z" stroke="#100072" stroke-width="1.5" stroke-linecap="round" stroke-linejoin="round"/>
	<path d="M18 13C18 14.5913 17.3679 16.1174 16.2426 17.2426C15.1174 18.3679 13.5913 19 12 19C10.4087 19 8.88258 18.3679 7.75736 17.2426C6.63214 16.1174 6 14.5913 6 13" stroke="#100072" stroke-width="1.5" stroke-linecap="round" stroke-linejoin="round"/>
	<path d="M18 9C18 8.46957 17.7893 7.96086 17.4142 7.58579C17.0391 7.21071 16.5304 7 16 7C15.4696 7 14.9609 7.21071 14.5858 7.58579C14.2107 7.96086 14 8.46957 14 9" stroke="#100072" stroke-width="1.5" stroke-linecap="round" stroke-linejoin="round"/>
	<path d="M10 9C10 8.46957 9.78929 7.96086 9.41421 7.58579C9.03914 7.21071 8.53043 7 8 7C7.46957 7 6.96086 7.21071 6.58579 7.58579C6.21071 7.96086 6 8.46957 6 9" stroke="#100072" stroke-width="1.5" stroke-linecap="round" stroke-linejoin="round"/>
</svg>