<svg width="172" height="2" viewBox="0 0 172 2" fill="none" xmlns="http://www.w3.org/2000/svg">
<path fill-rule="evenodd" clip-rule="evenodd" d="M0 1C0 0.447715 0.447715 0 1 0H7.07143C7.62371 0 8.07143 0.447715 8.07143 1C8.07143 1.55228 7.62371 2 7.07143 2H1C0.447715 2 0 1.55228 0 1ZM18.2143 1C18.2143 0.447715 18.662 0 19.2143 0H31.3571C31.9094 0 32.3571 0.447715 32.3571 1C32.3571 1.55228 31.9094 2 31.3571 2H19.2143C18.662 2 18.2143 1.55228 18.2143 1ZM42.5 1C42.5 0.447715 42.9477 0 43.5 0H55.6429C56.1951 0 56.6429 0.447715 56.6429 1C56.6429 1.55228 56.1951 2 55.6429 2H43.5C42.9477 2 42.5 1.55228 42.5 1ZM66.7857 1C66.7857 0.447715 67.2334 0 67.7857 0H79.9286C80.4809 0 80.9286 0.447715 80.9286 1C80.9286 1.55228 80.4809 2 79.9286 2H67.7857C67.2334 2 66.7857 1.55228 66.7857 1ZM91.0714 1C91.0714 0.447715 91.5191 0 92.0714 0H104.214C104.767 0 105.214 0.447715 105.214 1C105.214 1.55228 104.767 2 104.214 2H92.0714C91.5191 2 91.0714 1.55228 91.0714 1ZM115.357 1C115.357 0.447715 115.805 0 116.357 0H128.5C129.052 0 129.5 0.447715 129.5 1C129.5 1.55228 129.052 2 128.5 2H116.357C115.805 2 115.357 1.55228 115.357 1ZM139.643 1C139.643 0.447715 140.091 0 140.643 0H152.786C153.338 0 153.786 0.447715 153.786 1C153.786 1.55228 153.338 2 152.786 2H140.643C140.091 2 139.643 1.55228 139.643 1ZM163.929 1C163.929 0.447715 164.376 0 164.929 0H171C171.552 0 172 0.447715 172 1C172 1.55228 171.552 2 171 2H164.929C164.376 2 163.929 1.55228 163.929 1Z" fill="#CFCCE3"/>
</svg>
