<?xml version="1.0" standalone="no"?>
<!DOCTYPE svg PUBLIC "-//W3C//DTD SVG 20010904//EN"
 "http://www.w3.org/TR/2001/REC-SVG-20010904/DTD/svg10.dtd">
<svg version="1.0" xmlns="http://www.w3.org/2000/svg"
 width="2160.000000pt" height="474.000000pt" viewBox="0 0 2160.000000 474.000000"
 preserveAspectRatio="xMidYMid meet">

<g transform="translate(0.000000,474.000000) scale(0.100000,-0.100000)"
fill="#000000" stroke="none">
<path d="M2096 4449 c-144 -16 -440 -89 -500 -122 -12 -6 -26 -12 -31 -13 -34
-6 -197 -87 -313 -156 -118 -71 -328 -227 -305 -228 4 0 0 -5 -10 -11 -9 -6
-14 -15 -11 -21 4 -7 2 -8 -4 -4 -14 9 -85 -60 -77 -74 3 -6 -1 -7 -9 -4 -11
4 -16 0 -16 -12 0 -9 -3 -15 -6 -11 -13 13 -191 -207 -221 -273 -4 -8 -9 -17
-13 -20 -16 -13 -59 -84 -54 -92 3 -4 0 -8 -5 -8 -14 0 -113 -208 -106 -220 4
-6 2 -10 -3 -10 -12 0 -34 -49 -27 -61 4 -5 2 -9 -3 -9 -12 0 -75 -195 -76
-237 -1 -17 -5 -29 -10 -26 -5 3 -7 -8 -4 -25 2 -17 1 -29 -2 -27 -9 6 -29
-116 -38 -225 -16 -201 1 -530 29 -566 5 -6 6 -13 4 -16 -9 -9 38 -192 52
-206 7 -8 11 -18 7 -23 -8 -13 25 -109 37 -109 6 0 8 -4 5 -9 -7 -11 33 -113
50 -127 8 -6 11 -13 8 -16 -6 -7 17 -58 27 -58 4 0 10 -11 13 -24 10 -40 69
-136 84 -136 7 0 11 -4 8 -9 -8 -13 4 -42 15 -35 5 3 9 -2 9 -11 0 -9 12 -33
27 -53 31 -43 50 -64 38 -43 -5 10 -4 12 4 7 6 -4 9 -11 6 -16 -8 -13 199
-250 219 -250 3 0 22 -18 42 -39 36 -41 201 -170 266 -210 21 -12 42 -20 48
-16 6 4 9 1 8 -5 -4 -15 147 -100 189 -107 19 -3 30 -10 26 -16 -4 -6 0 -8 10
-4 10 3 17 2 17 -4 0 -6 5 -7 10 -4 6 3 10 2 10 -3 0 -14 87 -45 101 -36 8 4
9 3 5 -4 -14 -24 305 -104 487 -122 170 -17 17389 -9 17472 9 208 42 425 105
425 122 0 6 5 7 10 4 6 -3 10 -1 10 5 0 6 4 9 9 6 11 -7 83 22 93 38 4 6 8 8
8 3 0 -9 142 62 151 75 3 5 8 8 10 7 2 -2 36 16 74 39 39 23 63 42 55 43 -8 0
0 5 18 10 17 5 32 14 32 19 0 6 5 10 11 10 34 0 346 291 333 311 -4 7 -3 9 3
6 20 -12 219 253 199 265 -7 5 -4 8 7 8 11 0 26 16 38 43 11 23 36 69 54 102
19 33 32 67 29 75 -3 8 -2 11 2 7 10 -10 75 144 69 161 -3 7 -1 11 4 8 10 -6
34 71 26 83 -3 5 1 15 8 23 8 7 18 31 22 53 5 22 9 45 11 50 25 101 36 167 50
305 14 139 15 189 6 320 -10 142 -34 303 -49 340 -4 8 -8 27 -10 42 -4 36 -79
259 -90 267 -4 3 -10 15 -11 25 -6 32 -64 156 -73 156 -5 0 -9 7 -9 15 0 19
-53 114 -80 143 -11 12 -21 25 -23 29 -1 5 -6 7 -10 5 -5 -1 -6 2 -2 7 3 6 -3
19 -15 31 -11 11 -17 20 -14 20 7 0 -47 74 -85 117 -15 18 -32 29 -36 25 -5
-4 -5 -2 -2 4 7 12 -48 76 -57 67 -3 -4 -6 1 -6 9 0 17 -103 118 -120 118 -6
0 -8 5 -5 10 3 6 2 10 -2 10 -5 0 -28 17 -51 39 -24 21 -55 44 -70 52 -15 8
-35 24 -46 37 -10 13 -21 21 -24 18 -2 -3 -17 5 -33 18 -15 13 -42 30 -59 37
-16 8 -30 17 -30 21 0 11 -233 126 -335 165 -129 49 -336 100 -477 118 -109
13 -1102 15 -8743 14 -4741 -1 -8651 -5 -8689 -10z m5054 -1244 c40 -21 60
-63 60 -128 0 -45 -5 -61 -30 -92 -16 -21 -30 -34 -30 -29 0 4 -5 3 -12 -4
-16 -16 -88 -15 -129 2 -55 23 -71 48 -76 120 l-6 66 40 40 c38 37 44 40 97
40 31 0 70 -7 86 -15z m8935 5 c4 -6 10 -8 14 -6 4 3 14 -6 21 -19 7 -14 17
-25 22 -25 14 0 9 -119 -6 -148 -37 -70 -112 -90 -192 -52 -24 12 -44 26 -44
31 0 6 -4 8 -8 5 -5 -3 -9 0 -10 7 -15 116 -15 127 9 162 13 19 33 38 44 44
27 13 142 14 150 1z m-2135 -84 c0 -3 0 -307 0 -676 l0 -670 -125 0 -125 0 0
39 c0 50 -13 58 -38 26 -11 -14 -24 -25 -30 -25 -6 0 -12 -4 -14 -8 -1 -5 -34
-21 -72 -36 -63 -25 -78 -27 -175 -24 -90 3 -115 8 -162 31 -102 48 -187 156
-235 297 -15 44 -19 84 -19 205 0 153 6 187 50 290 27 62 130 161 205 198 58
28 77 32 170 35 128 5 193 -15 269 -84 l50 -45 1 222 c0 122 2 225 4 228 5 8
246 4 246 -3z m-11609 -36 l109 0 0 -535 0 -535 23 -5 c12 -3 129 -5 260 -3
l237 3 0 -117 0 -118 -390 0 -390 0 0 639 c0 352 -3 646 -6 655 -4 12 0 16 15
16 12 0 21 6 22 13 0 10 2 10 6 0 3 -9 36 -13 114 -13z m12495 11 c-9 -14 5
-42 17 -34 7 4 8 0 4 -11 -5 -11 26 -121 79 -280 47 -143 92 -283 99 -311 8
-27 36 -115 63 -195 l49 -144 17 54 c9 30 21 63 27 72 5 10 9 23 9 30 0 11 64
211 210 658 l48 145 143 5 c79 3 146 4 148 3 2 -1 -4 -21 -14 -45 -10 -24 -34
-90 -55 -148 -21 -58 -52 -143 -69 -190 -18 -47 -52 -139 -76 -205 -24 -66
-64 -176 -90 -245 -78 -213 -92 -255 -87 -269 3 -8 0 -11 -6 -7 -6 3 -13 -7
-17 -26 -4 -18 -10 -37 -14 -43 -4 -5 -16 -38 -27 -72 l-19 -63 -126 0 -126 0
-36 98 c-20 53 -65 176 -100 272 -36 96 -82 223 -103 282 -21 58 -43 104 -48
101 -5 -4 -7 1 -3 11 4 9 2 24 -3 34 -5 9 -43 112 -85 227 -41 116 -82 227
-89 248 l-14 37 138 0 c82 0 141 4 145 10 3 6 8 10 11 10 3 0 3 -4 0 -9z
m-2331 -308 c28 -9 68 -25 89 -36 35 -17 53 -31 106 -82 6 -5 24 -31 41 -58
49 -76 78 -172 85 -285 l7 -102 -354 -2 -354 -3 2 -34 c2 -43 33 -112 46 -104
6 3 7 1 3 -5 -7 -12 35 -62 53 -62 6 0 11 -4 11 -10 0 -5 26 -17 57 -26 134
-39 293 24 293 116 0 10 4 22 10 25 5 3 61 -2 125 -11 l116 -18 -7 -30 c-21
-96 -89 -190 -179 -246 -142 -88 -363 -96 -530 -19 -42 19 -51 26 -120 94 -63
62 -112 149 -133 235 -18 75 -17 247 2 318 17 65 44 129 61 148 6 6 26 30 45
54 67 80 200 150 310 162 54 6 167 -4 215 -19z m-8836 -2 c33 -10 63 -16 66
-13 3 3 5 0 5 -6 0 -7 4 -12 10 -12 19 0 108 -70 143 -113 46 -56 92 -149 107
-218 19 -87 8 -288 -20 -369 -13 -35 -27 -69 -32 -75 -4 -5 -26 -33 -48 -62
-55 -70 -123 -117 -217 -149 -71 -24 -89 -26 -198 -22 -116 4 -123 5 -200 43
-179 88 -275 256 -275 483 0 130 22 215 79 311 27 44 46 83 43 86 -3 3 2 5 12
5 10 0 14 5 10 12 -4 7 -3 8 5 4 6 -4 25 4 42 19 41 33 81 54 149 76 78 25
238 25 319 0z m1060 -16 c41 -20 85 -48 97 -62 l23 -27 -3 47 -2 46 128 3 128
3 0 -490 c0 -524 -2 -545 -51 -651 -30 -63 -113 -144 -179 -175 -86 -41 -154
-54 -280 -53 -100 0 -125 4 -190 28 -41 15 -85 28 -97 29 -11 1 -19 5 -17 9 3
4 -20 31 -49 60 -59 58 -72 77 -99 153 -23 67 -23 85 2 80 10 -2 61 3 112 10
51 8 98 15 105 15 6 0 23 -20 38 -45 14 -25 45 -58 67 -73 39 -25 49 -27 147
-27 86 0 112 4 136 19 47 29 76 71 91 134 24 103 15 178 -18 134 -19 -26 -107
-78 -154 -92 -26 -8 -80 -11 -145 -8 -95 5 -109 8 -163 38 -92 52 -160 138
-204 259 -24 67 -24 316 0 386 10 28 18 54 17 59 0 5 3 12 8 15 4 3 21 25 36
49 39 61 146 134 222 153 17 4 73 7 125 8 90 1 100 -1 169 -34z m1151 4 c25
-13 61 -38 80 -56 l35 -33 3 45 3 45 127 0 127 0 -5 -512 -5 -513 -29 -70
c-30 -72 -102 -166 -146 -190 -116 -65 -229 -91 -360 -81 -99 7 -143 18 -226
57 -101 46 -204 181 -204 265 l0 32 78 11 c183 26 167 27 182 -9 34 -83 105
-122 220 -122 88 0 132 15 177 61 39 39 52 81 60 186 l5 80 -21 -19 c-11 -10
-18 -23 -15 -27 3 -5 -3 -12 -13 -15 -40 -13 -62 -28 -56 -38 3 -6 3 -8 -2 -4
-4 4 -22 0 -39 -9 -21 -11 -66 -18 -144 -21 l-113 -5 -74 37 c-98 49 -163 121
-208 231 -31 78 -32 84 -32 230 0 140 2 154 28 216 15 36 27 68 27 72 0 13 96
104 133 126 87 53 124 62 247 57 96 -3 123 -8 160 -27z m2234 19 c22 -6 46
-16 53 -21 7 -5 16 -6 21 -3 16 9 89 -86 118 -154 17 -41 19 -76 22 -442 l3
-398 -125 0 -124 0 -4 323 c-4 315 -12 387 -40 387 -5 0 -7 3 -4 8 16 26 -80
82 -140 82 -67 0 -153 -38 -138 -61 3 -5 -2 -6 -10 -3 -9 3 -16 1 -16 -5 0 -7
-10 -25 -22 -42 -23 -30 -23 -36 -26 -360 l-3 -329 -124 0 -125 0 -2 500 -3
500 127 0 127 0 3 -52 3 -51 54 47 c76 64 135 85 245 85 49 1 107 -4 130 -11z
m1120 0 c22 -6 46 -16 53 -21 7 -5 16 -6 21 -3 16 9 89 -86 118 -154 17 -41
19 -76 22 -442 l3 -398 -125 0 -124 0 -4 323 c-4 315 -12 387 -40 387 -5 0 -7
3 -4 8 16 26 -80 82 -140 82 -67 0 -153 -38 -138 -61 3 -5 -1 -7 -8 -4 -8 3
-23 -13 -38 -37 l-25 -43 -3 -327 -3 -328 -124 0 -125 0 -2 500 -3 500 127 0
127 0 3 -52 3 -51 54 47 c76 64 135 85 245 85 49 1 107 -4 130 -11z m1620 -8
c68 -26 96 -48 134 -105 l29 -44 43 49 c29 33 66 61 109 83 59 29 76 32 169
35 157 6 235 -26 299 -122 56 -82 57 -89 60 -513 l4 -393 -125 0 -126 0 0 273
c-1 149 -5 303 -9 340 -10 74 -42 134 -87 163 -54 36 -175 26 -217 -17 -10
-11 -21 -19 -26 -19 -4 0 -18 -19 -32 -42 -24 -43 -24 -45 -27 -370 l-3 -328
-125 0 -124 0 0 288 c0 325 -10 405 -56 453 -37 39 -84 59 -136 59 -52 0 -128
-33 -128 -55 0 -9 -4 -14 -9 -11 -13 8 -41 -27 -57 -71 -10 -29 -13 -113 -14
-350 l0 -313 -125 0 -125 0 -2 500 -3 500 127 0 127 0 3 -52 3 -51 47 40 c26
23 45 44 42 47 -2 3 -2 4 1 2 3 -2 31 7 63 20 77 32 216 34 296 4z m6266 -18
c35 -19 75 -42 88 -52 60 -48 132 -183 151 -285 16 -84 13 -239 -5 -315 -15
-68 -72 -200 -84 -200 -4 0 -15 -12 -25 -26 -9 -15 -11 -23 -4 -19 8 5 10 4 5
-3 -4 -7 -14 -12 -22 -12 -8 0 -27 -11 -42 -25 -15 -14 -52 -38 -82 -53 -46
-22 -71 -27 -157 -30 -126 -5 -182 12 -259 74 -29 24 -56 44 -59 44 -3 0 -5
-99 -5 -220 l0 -220 -120 0 c-107 0 -120 -2 -121 -17 0 -17 -1 -17 -7 -1 -4
10 -6 322 -4 695 l2 678 128 -3 127 -3 -3 -50 c-2 -27 0 -49 4 -49 5 0 26 17
49 39 22 21 69 50 105 65 58 24 76 26 170 24 97 -3 110 -6 170 -36z m1163 10
c48 -22 125 -77 140 -100 5 -7 13 -9 19 -6 6 4 8 3 5 -3 -4 -6 9 -37 28 -69
52 -86 66 -143 72 -284 4 -94 1 -142 -11 -192 -37 -160 -121 -277 -242 -339
-63 -32 -76 -34 -178 -37 -100 -3 -116 -1 -166 21 -30 14 -75 43 -100 66 l-45
41 -3 -225 -2 -225 -110 -2 c-61 -1 -117 -2 -125 -2 -13 -1 -16 79 -18 676
l-2 677 123 3 c67 2 126 2 130 1 4 -2 5 -29 4 -60 l-4 -58 26 24 c14 13 23 28
20 33 -3 5 -2 7 3 6 4 -1 20 6 35 16 15 10 54 29 85 42 52 22 70 24 163 21 80
-3 116 -9 153 -25z m943 11 c103 -34 169 -94 217 -195 43 -90 50 -115 39 -122
-5 -3 -53 -13 -107 -21 -54 -9 -103 -17 -109 -18 -6 -1 -13 12 -14 28 -2 17
-10 37 -18 46 -8 9 -12 18 -8 21 10 11 -51 46 -98 55 -72 16 -129 2 -173 -42
-23 -22 -17 -70 12 -96 34 -32 64 -42 208 -69 60 -12 128 -29 150 -39 49 -22
112 -75 120 -102 4 -11 10 -17 15 -14 5 3 9 -3 9 -12 1 -10 4 -61 7 -115 6
-88 4 -101 -18 -150 -31 -66 -78 -121 -118 -138 -17 -7 -28 -15 -25 -18 14
-14 -100 -35 -211 -39 -135 -5 -176 4 -271 58 -94 54 -175 170 -177 251 l-1
42 70 12 c162 26 155 26 155 4 0 -27 32 -90 56 -111 52 -45 192 -54 259 -16
34 19 40 28 43 60 3 32 -2 43 -28 67 -17 16 -48 32 -68 36 -34 6 -192 38 -252
52 -33 7 -98 55 -133 97 -43 53 -58 99 -59 184 0 95 28 168 85 220 47 43 56
48 127 78 71 29 238 32 316 6z m-3080 -29 c-3 -9 -6 -234 -6 -500 l0 -484
-125 0 -125 0 0 503 0 502 131 -3 c112 -3 130 -5 125 -18z m-8946 -484 l0
-500 -125 0 -125 0 -2 500 -3 500 128 0 127 0 0 -500z m-6905 -219 c3 -5 2
-12 -3 -15 -5 -3 -9 1 -9 9 0 17 3 19 12 6z m20705 -781 c0 -5 -2 -10 -4 -10
-3 0 -8 5 -11 10 -3 6 -1 10 4 10 6 0 11 -4 11 -10z m-975 -810 c3 -5 1 -10
-4 -10 -6 0 -11 5 -11 10 0 6 2 10 4 10 3 0 8 -4 11 -10z m-17820 -170 c-3 -5
-12 -10 -18 -10 -7 0 -6 4 3 10 19 12 23 12 15 0z"/>
<path d="M13375 2569 c-103 -40 -166 -149 -167 -291 0 -43 5 -84 11 -92 6 -7
8 -15 5 -18 -11 -12 41 -100 79 -133 80 -69 176 -80 262 -30 72 42 120 116
120 187 0 20 4 34 9 31 14 -9 0 146 -19 199 -23 66 -98 139 -158 156 -62 16
-82 15 -142 -9z"/>
<path d="M12273 2588 c-18 -6 -33 -15 -33 -19 0 -5 -6 -9 -13 -9 -21 0 -79
-69 -81 -95 0 -14 -4 -25 -8 -25 -5 0 -8 -7 -8 -15 0 -13 31 -15 220 -15 211
0 220 1 220 19 0 53 -55 121 -125 152 -44 20 -121 23 -172 7z"/>
<path d="M3435 2576 c-22 -9 -46 -23 -53 -33 -7 -10 -16 -16 -20 -14 -9 6 -73
-89 -67 -99 3 -5 -1 -10 -7 -12 -10 -4 -13 -38 -13 -129 0 -116 2 -128 28
-182 26 -52 77 -105 109 -111 7 -2 26 -8 41 -14 44 -19 94 -14 151 13 98 46
149 141 150 280 1 136 -45 233 -138 290 -39 24 -131 29 -181 11z"/>
<path d="M4524 2566 c-48 -22 -98 -73 -106 -106 -2 -8 -7 -18 -13 -22 -6 -4
-10 -53 -10 -110 0 -84 4 -109 20 -138 58 -103 149 -145 255 -120 100 24 180
135 180 251 0 55 -11 100 -23 92 -6 -4 -8 0 -4 11 4 10 2 27 -4 38 -18 34 -81
98 -90 92 -5 -3 -9 -1 -9 4 0 11 -77 32 -117 32 -15 0 -51 -11 -79 -24z"/>
<path d="M5697 2579 c-59 -16 -129 -87 -143 -145 -12 -51 -16 -184 -5 -184 5
0 9 -14 9 -32 -1 -18 4 -34 10 -36 7 -2 12 -9 12 -16 0 -17 47 -57 94 -81 53
-27 138 -25 191 3 75 40 111 83 99 119 -4 13 -3 14 3 5 13 -17 33 50 33 110 0
146 -107 266 -235 265 -22 0 -53 -4 -68 -8z"/>
<path d="M16825 2585 c-5 -2 -22 -6 -38 -9 -34 -8 -103 -69 -124 -110 -55
-106 -55 -257 0 -360 23 -43 86 -106 106 -106 9 0 22 -5 29 -12 19 -19 117
-12 167 12 25 12 43 26 39 31 -3 5 1 9 9 9 23 0 64 62 82 124 19 65 21 166 5
229 -14 53 -64 127 -104 155 -43 29 -135 49 -171 37z"/>
<path d="M17952 2565 c-60 -31 -115 -96 -134 -159 -15 -48 -17 -202 -4 -231
11 -24 10 -22 20 -57 5 -16 12 -28 16 -28 5 0 11 -9 15 -20 11 -34 94 -83 152
-88 65 -6 126 5 117 20 -5 8 -1 9 10 5 12 -5 31 7 65 41 57 57 81 130 81 243
-1 124 -46 211 -136 264 -68 40 -136 43 -202 10z"/>
</g>
</svg>
