<svg width="16" height="16" viewBox="0 0 16 16" fill="none" xmlns="http://www.w3.org/2000/svg">
<g clip-path="url(#clip0_480_9809)">
<path d="M8.00033 15.3327C12.0504 15.3327 15.3337 12.0494 15.3337 7.99935C15.3337 3.94926 12.0504 0.666016 8.00033 0.666016C3.95024 0.666016 0.666992 3.94926 0.666992 7.99935C0.666992 12.0494 3.95024 15.3327 8.00033 15.3327Z" stroke="#100072" stroke-width="1.5" stroke-linecap="round" stroke-linejoin="round"/>
<path d="M8.00065 12.6654C8.36884 12.6654 8.66732 12.3669 8.66732 11.9987C8.66732 11.6305 8.36884 11.332 8.00065 11.332C7.63246 11.332 7.33398 11.6305 7.33398 11.9987C7.33398 12.3669 7.63246 12.6654 8.00065 12.6654Z" fill="#100072"/>
<path d="M6.56934 4.37318C7.88934 3.78984 9.59734 3.85918 10.1807 4.80318C10.764 5.74718 10.3613 6.84518 9.36134 7.69251C8.36134 8.53984 8.00067 8.99985 8.00067 9.66651" stroke="#100072" stroke-width="1.5" stroke-linecap="round" stroke-linejoin="round"/>
</g>
<defs>
<clipPath id="clip0_480_9809">
<rect width="16" height="16" fill="white"/>
</clipPath>
</defs>
</svg>
