<svg width="81" height="64" viewBox="0 0 81 64" fill="none" xmlns="http://www.w3.org/2000/svg">
<g clip-path="url(#clip0_21_356)">
<path d="M49.1444 1.97159C40.4619 -4.22361 30.9195 5.37089 37.0563 14.1495C37.2323 14.402 37.4488 14.6231 37.697 14.8039C46.3794 20.9906 55.9302 11.4046 49.785 2.61746C49.6118 2.36505 49.3947 2.14624 49.1444 1.97159Z" fill="#FF0098"/>
<path d="M78.4036 1.97159C69.7211 -4.22361 60.1788 5.37089 66.3156 14.1495C66.4946 14.4023 66.714 14.6234 66.9647 14.8039C75.6472 20.9906 85.1894 11.4046 79.0527 2.61746C78.8734 2.36733 78.654 2.14905 78.4036 1.97159Z" fill="#FF0098"/>
<path d="M12.1723 11.9315C13.3751 23.0787 18.695 33.3615 27.0744 40.7352C35.4537 48.1089 46.2787 52.0334 57.3971 51.7286V63.983C44.0239 64.2466 30.9895 59.731 20.6019 51.2357C9.00281 41.7432 1.49204 26.9733 0 11.8975L12.1723 11.9315Z" fill="#FF0098"/>
</g>
<defs>
<clipPath id="clip0_21_356">
<rect width="81" height="64" fill="white"/>
</clipPath>
</defs>
</svg>
