<svg width="200" height="40" viewBox="0 0 200 40" fill="none" xmlns="http://www.w3.org/2000/svg">
<g clip-path="url(#clip0_612_5294)">
<g clip-path="url(#clip1_612_5294)">
<path d="M16.195 22.8753C15.1303 24.8754 12.9279 26.1311 10.4361 26.1311C7.24208 26.1311 4.87956 24.1647 4.25592 21.1055H19.7289C19.8682 21.1062 20.0029 21.0552 20.1067 20.9623C20.2105 20.8694 20.2761 20.7412 20.2908 20.6026C20.3301 20.1813 20.3301 19.729 20.3301 19.3638C20.3301 13.4645 16.077 9.18329 10.217 9.18329C4.29806 9.18329 0 13.4476 0 19.3273C0 25.4766 4.35986 29.9404 10.3631 29.9404C14.605 29.9404 18.0799 27.9739 19.6587 24.6507L16.195 22.8753ZM4.343 17.3552C5.02002 14.7118 7.25613 12.9785 10.085 12.9785C13.0093 12.9785 15.2539 14.664 15.9646 17.3552H4.343Z" fill="#FF0098"/>
<path d="M23.8473 29.2041H27.9459V3.79787C27.9451 3.44148 27.803 3.09994 27.5508 2.8482C27.2985 2.59646 26.9566 2.45508 26.6003 2.45508H25.1957C24.8395 2.45508 24.498 2.59655 24.2462 2.84837C23.9943 3.1002 23.8529 3.44174 23.8529 3.79787L23.8473 29.2041Z" fill="#FF0098"/>
<path d="M183.395 0.871043C181.35 3.77574 184.518 6.9445 187.423 4.89941C187.507 4.8405 187.581 4.7673 187.64 4.68311C189.696 1.78965 186.516 -1.39878 183.622 0.657544C183.534 0.714333 183.457 0.786676 183.395 0.871043Z" fill="#FF0098"/>
<path d="M173.655 0.870778C171.61 3.77548 174.779 6.94424 177.684 4.89915C177.766 4.8394 177.839 4.7663 177.897 4.68284C179.945 1.78938 176.774 -1.39904 173.875 0.654471C173.79 0.714055 173.716 0.787136 173.655 0.870778Z" fill="#FF0098"/>
<path d="M200 3.93848C199.5 8.93321 197 13.8156 193.134 16.931C189.673 19.7394 185.329 21.2321 180.872 21.1447V17.1051C184.395 17.1736 187.83 16.0034 190.578 13.7987C193.583 11.3366 195.508 7.79876 195.944 3.93848H200Z" fill="#FF0098"/>
<path d="M63.8106 9.0484C57.7765 9.0484 53.397 13.4448 53.397 19.4986C53.397 25.6788 57.6782 29.9881 63.8106 29.9881C69.8447 29.9881 74.2242 25.5748 74.2242 19.4986C74.2242 13.4223 69.8419 9.0484 63.8106 9.0484ZM63.8106 26.2687C60.0407 26.2687 57.4085 23.4848 57.4085 19.4986C57.4085 15.5994 60.0997 12.7565 63.8106 12.7565C67.5215 12.7565 70.2127 15.5882 70.2127 19.4986C70.2127 23.409 67.5159 26.2687 63.8106 26.2687Z" fill="#FF0098"/>
<path d="M99.3412 9.08504C98.0856 9.06296 96.845 9.36082 95.7363 9.95057C94.6276 10.5403 93.6872 11.4025 93.0037 12.4561C92.3432 11.4045 91.4235 10.5404 90.3329 9.94667C89.2423 9.35291 88.0174 9.04944 86.7758 9.06538C85.7569 9.05132 84.7492 9.27748 83.8341 9.72551C82.9189 10.1736 82.1222 10.8309 81.5085 11.6442V11.1357C81.5089 10.9594 81.4745 10.7847 81.4074 10.6217C81.3402 10.4586 81.2417 10.3104 81.1172 10.1854C80.9928 10.0605 80.845 9.96126 80.6822 9.89343C80.5194 9.82561 80.3449 9.79051 80.1685 9.79015H78.9522C78.7754 9.78978 78.6002 9.82433 78.4368 9.89182C78.2734 9.95931 78.1249 10.0584 77.9999 10.1834C77.8748 10.3085 77.7757 10.4569 77.7082 10.6204C77.6408 10.7838 77.6062 10.9589 77.6066 11.1357V29.2634H81.6265V17.7036C81.6265 14.7062 83.3907 12.7679 86.1212 12.7679C88.7197 12.7679 90.3996 14.7062 90.3996 17.7036V29.255H94.4111V17.7036C94.4111 14.7989 96.2905 12.7679 98.9817 12.7679C101.482 12.7679 103.294 14.8439 103.294 17.7036V29.255H107.302V17.7373C107.302 12.7173 103.954 9.08504 99.3412 9.08504Z" fill="#FF0098"/>
<path d="M122.295 9.0484C119.514 9.0484 117.199 10.0934 115.674 12.0149V11.1272C115.674 10.9509 115.64 10.7762 115.573 10.6131C115.506 10.4501 115.407 10.3018 115.283 10.1769C115.158 10.0519 115.01 9.95271 114.848 9.88489C114.685 9.81706 114.51 9.78197 114.334 9.7816H113.005C112.649 9.7816 112.307 9.92307 112.056 10.1749C111.804 10.4267 111.662 10.7683 111.662 11.1244V37.6768H115.674V27.0749C117.194 28.9374 119.567 29.9881 122.332 29.9881C128.04 29.9881 132.344 25.4934 132.344 19.4986C132.344 13.5038 128.023 9.0484 122.295 9.0484ZM128.329 19.4986C128.329 23.3584 125.593 26.2687 121.966 26.2687C118.34 26.2687 115.564 23.3584 115.564 19.4986C115.564 15.6388 118.317 12.7565 121.966 12.7565C125.616 12.7565 128.329 15.5994 128.329 19.4986Z" fill="#FF0098"/>
<path d="M136.223 29.255H140.237V11.1273C140.237 10.7704 140.096 10.4281 139.843 10.1758C139.591 9.92345 139.249 9.78168 138.892 9.78168H137.569C137.392 9.78131 137.217 9.81586 137.053 9.88335C136.89 9.95084 136.741 10.0499 136.616 10.175C136.491 10.3 136.392 10.4485 136.325 10.6119C136.257 10.7753 136.223 10.9505 136.223 11.1273V29.255Z" fill="#FF0098"/>
<path d="M159.649 15.8073C159.825 15.8077 160 15.7733 160.163 15.7062C160.326 15.639 160.474 15.5404 160.599 15.416C160.724 15.2916 160.823 15.1437 160.891 14.981C160.959 14.8182 160.994 14.6437 160.994 14.4673C160.994 14.3566 160.981 14.2463 160.955 14.1386C160.166 11.0485 157.126 9.05402 152.907 9.05402C148.086 9.05402 144.996 11.5289 144.996 15.3297C144.996 20.4228 150.508 21.0689 152.862 21.3414L153.323 21.4032C156.151 21.7656 157.753 22.0577 157.753 23.8275C157.753 25.4484 156.182 26.4569 153.657 26.4569C150.567 26.4569 148.6 24.94 148.575 22.5016H144.673C144.673 27.1873 147.991 29.9853 153.547 29.9853C158.579 29.9853 161.582 27.6649 161.582 23.7826C161.582 18.5463 156.244 17.8833 153.679 17.549L153.303 17.504C150.553 17.1782 148.867 16.8945 148.867 15.2089C148.867 13.6133 150.446 12.5824 152.887 12.5824C155.064 12.5824 156.612 13.4616 157.101 14.8859C157.199 15.1575 157.38 15.3918 157.617 15.556C157.855 15.7201 158.138 15.806 158.427 15.8017L159.649 15.8073Z" fill="#FF0098"/>
<path d="M138.232 5.21677C139.665 5.21677 140.827 4.05464 140.827 2.62108C140.827 1.18752 139.665 0.0253906 138.232 0.0253906C136.798 0.0253906 135.636 1.18752 135.636 2.62108C135.636 4.05464 136.798 5.21677 138.232 5.21677Z" fill="#FF0098"/>
<path d="M40.2837 19.8863L37.8621 22.1168V29.1398H34.0922V3.29244C34.0922 3.08382 34.1751 2.88376 34.3226 2.73625C34.4701 2.58873 34.6702 2.50586 34.8788 2.50586H37.0728C37.1763 2.50549 37.2789 2.52557 37.3746 2.56493C37.4704 2.60429 37.5574 2.66217 37.6308 2.73525C37.7041 2.80833 37.7623 2.89516 37.802 2.99078C37.8417 3.08639 37.8621 3.1889 37.8621 3.29244V17.4929L45.9919 10.0317C46.1756 9.85489 46.4196 9.75448 46.6746 9.75076H50.0793C50.1619 9.75038 50.2426 9.77493 50.311 9.82121C50.3794 9.86749 50.4322 9.93333 50.4626 10.0101C50.493 10.0869 50.4994 10.1711 50.4811 10.2516C50.4629 10.3322 50.4207 10.4053 50.3602 10.4615L42.9749 17.3243L51.8575 29.1229H47.242L40.2837 19.8863Z" fill="#FF0098"/>
</g>
</g>
<defs>
<clipPath id="clip0_612_5294">
<rect width="200" height="39.8753" fill="white"/>
</clipPath>
<clipPath id="clip1_612_5294">
<rect width="200" height="37.6796" fill="white"/>
</clipPath>
</defs>
</svg>
